# xmcd
#
# Track frame offsets:
#	150
#	25884
#	40764
#	63267
#	85132
#	102051
#	119556
#	145957
#	162137
#	171661
#	194826
#	215874
#	238592
#	255467
#
# Disc length: 3576 seconds
#
# Revision: 1
# Processed by: cddbd v1.5.1PL2 Copyright (c) Steve Scherf et al.
# Submitted via: EasyCDDAExtractor 5.0.7
#
DISCID=cc0df60e
DTITLE=Ayllumanta - Huinaytaki
DYEAR=1900
DGENRE=
TTITLE0=Condor Passa
TTITLE1=Qosqollayta
TTITLE2=Tinkuspa
TTITLE3=Mallquicha
TTITLE4=Taquispa Tususpa
TTITLE5=Huallatas
TTITLE6=Quinsa Quinsa
TTITLE7=Puri J Runa
TTITLE8=Rio Grande
TTITLE9=Una Vez Mas
TTITLE10=Ciudad Del Verano
TTITLE11=Desde El Cielo
TTITLE12=Tusikug
TTITLE13=Llaclacha
EXTD=
EXTT0=
EXTT1=
EXTT2=
EXTT3=
EXTT4=
EXTT5=
EXTT6=
EXTT7=
EXTT8=
EXTT9=
EXTT10=
EXTT11=
EXTT12=
EXTT13=
PLAYORDER=
